<?xml version="1.0" encoding="utf-8"?>
<!-- Generator: Adobe Illustrator 24.1.0, SVG Export Plug-In . SVG Version: 6.00 Build 0)  -->
<svg version="1.1" id="Layer_1" xmlns="http://www.w3.org/2000/svg" xmlns:xlink="http://www.w3.org/1999/xlink" x="0px" y="0px"
	 viewBox="0 0 3000 3000" style="enable-background:new 0 0 3000 3000;" xml:space="preserve">
<style type="text/css">
	.st0{fill:none;stroke:#C7C8CA;stroke-width:381.8182;stroke-miterlimit:10;}
	.st1{fill:none;stroke:#008B7F;stroke-width:381.8182;stroke-miterlimit:10;}
	.st2{fill:#231F20;}
	.st3{fill-rule:evenodd;clip-rule:evenodd;fill:#231F20;}
</style>
<circle class="st0" cx="1500" cy="1500" r="1309.1"/>
<g>
	<path class="st3" d="M1810.1,818.3c-25.3-0.9-51.8,3.6-78.3,12.2c-53.1,17.2-108.8,50.8-165.9,97.2c-22.4,18.2-45,39-67.6,61.1
		c-22.2-21.5-44.3-41.8-66.2-59.6c-57.1-46.4-112.6-80-165.6-97.2c-53-17.2-105.7-17.7-149,7.3c-43.3,25-69.2,70.9-80.8,125.4
		s-10.3,119.4,1.3,192c4.1,25.2,9.8,51.7,16.4,78.7c-24.7,7.5-48.8,15.4-71.1,24.1c-67.2,26.3-122.9,57.7-163.4,95.1
		c-40.5,37.4-66.7,82.8-66.7,132.6c0,49.8,26.2,95.2,66.7,132.5c40.5,37.4,96.2,68.9,163.4,95.1c23.8,9.3,49.6,17.7,76.3,25.6
		c-9.6,35.8-17.3,70.5-22.6,103.5c-11.7,72.7-12.9,137.6-1.3,192.2c11.6,54.6,37.6,100.8,81.1,125.9c43.5,25.1,96.5,24.5,149.6,7.3
		c53.1-17.2,108.7-50.7,165.8-97.2c22.2-18,44.6-38.6,67.1-60.5c22.6,22,45.1,42.7,67.4,60.8c57.1,46.4,112.6,79.9,165.6,97.1
		c53,17.2,105.7,17.7,149-7.3c43.3-25,69.1-70.9,80.8-125.4c11.6-54.5,10.3-119.3-1.3-191.9c-5.3-33-13.1-67.9-22.7-103.8
		c27.5-8.1,54.1-16.7,78.7-26.3c67.2-26.3,122.9-57.8,163.4-95.1c40.5-37.4,66.7-82.7,66.7-132.5c0-49.8-26.2-95.2-66.7-132.6
		c-40.5-37.4-96.2-68.8-163.4-95.1c-22.6-8.8-47-16.8-72.1-24.4c6.6-27.1,12.5-53.8,16.6-79.2c11.7-72.7,12.9-137.7,1.3-192.3
		c-11.6-54.6-37.6-100.7-81.1-125.8C1859.5,825.2,1835.4,819.1,1810.1,818.3z M1807.1,884.3c15.9,0.4,29.4,4.2,41,10.9
		c23.2,13.4,40.3,39.4,49.4,82.3c9.1,42.9,8.8,100.8-2,167.9c-3.7,23-9.1,47.4-15.1,72.3c-66.4-16-139.1-27.8-216.7-34.8
		c-38.9-53.9-78.9-103-119.2-146.6c21.3-20.8,42.5-40.3,63.2-57.1c52.8-42.9,102.7-72.1,144.4-85.6
		C1773,886.8,1791.2,883.9,1807.1,884.3z M1191.2,884.5c16-0.4,34.2,2.5,55.1,9.3c41.8,13.6,91.8,42.7,144.7,85.7
		c20.3,16.5,41,35.6,61.9,55.9c-40.6,43.9-80.9,93.5-120.1,147.9c-77.2,7.1-149.7,19-215.7,35.1c-6-24.8-11.4-49.1-15.1-71.9
		c-10.8-67.2-11.1-125.1-1.9-168.1c9.2-43,26.4-69.2,49.8-82.7C1161.6,888.8,1175.3,885,1191.2,884.5z M1499.2,1083.1
		c26.4,28.8,52.9,60.3,79.1,94.1c-25.8-1.1-51.9-1.7-78.3-1.7c-27,0-53.6,0.7-79.9,1.8C1446.4,1143.4,1472.8,1111.9,1499.2,1083.1z
		 M1500,1241c44.1,0,87.2,1.8,129,4.9c28.8,41.4,56.9,85.2,83.7,131.7c23.6,40.8,44.9,81.5,64.3,121.8
		c-19.6,40.8-41.3,82.1-65.2,123.4c-21,36.4-43,71-65.3,104.3c-47.3,4-96.2,6.1-146.6,6.1c-51.5,0-101.6-2.3-149.9-6.5
		c-21.9-32.9-43.5-66.9-64.2-102.8c-23.8-41.3-45.4-82.5-65-123.2c19.7-40.9,41.3-82.4,65.3-123.9c26.7-46.2,54.7-89.8,83.4-131
		C1411.8,1242.9,1455.4,1241,1500,1241z M1712.5,1254c53.5,6.7,103.7,15.9,150.5,27.1c-13.9,45.5-31,93-51.7,142
		c-13.4-25.9-27.4-51.9-42.4-78C1750.7,1313.5,1731.7,1283.4,1712.5,1254z M1284,1254.5c-18.8,28.9-37.3,58.4-55.1,89.3
		c-15.2,26.4-29.4,52.7-43,79c-20.5-48.7-37.5-96-51.3-141.2C1180.9,1270.5,1230.8,1261.3,1284,1254.5z M1927.2,1298.3
		c23,7,45.2,14.2,65.6,22.2c62,24.2,111,52.9,142.8,82.2c31.8,29.3,45.6,57.3,45.6,84.4c0,27.1-13.8,55.1-45.6,84.4
		c-31.8,29.3-80.8,58-142.8,82.2c-22.6,8.8-47.5,16.9-73.4,24.5c-18.5-57.1-42-116.6-70-177.4
		C1881.6,1431.1,1907.7,1363,1927.2,1298.3z M1071.7,1298.6c19.3,64,45.1,131.4,76.8,200.5c-28.2,61.1-51.9,121-70.4,178.4
		c-25-7.4-49-15.2-70.9-23.8c-62-24.2-111-52.9-142.8-82.2c-31.8-29.3-45.6-57.3-45.6-84.4c0-27.1,13.8-55.1,45.6-84.4
		c31.8-29.3,80.8-58,142.8-82.2C1027.2,1312.7,1049.1,1305.5,1071.7,1298.6z M1500,1338.1c-89.2,0-162.3,73-162.3,162.3
		c0,89.2,73,162.3,162.3,162.3s162.3-73,162.3-162.3C1662.3,1411.1,1589.2,1338.1,1500,1338.1z M1186.5,1577.1
		c13.7,26.4,27.9,52.8,43.2,79.4c12,20.8,24.2,41,36.6,60.8c-43.6-6-85-13.7-123.9-22.8C1154.8,1656.6,1169.6,1617.3,1186.5,1577.1z
		 M1812.2,1577.1c17,40.3,31.8,79.7,44.2,117.6c-39,9.1-80.6,16.7-124.3,22.7c12.6-20.1,25-40.5,37.1-61.6
		C1784.5,1629.6,1798.6,1603.3,1812.2,1577.1z M1123.7,1757.5c58.7,13.9,122.4,24.6,189.9,31.6c45.1,65.2,92,123.8,139.3,175
		c-21.1,20.6-42.1,39.9-62.6,56.6c-52.8,42.9-102.8,72.1-144.5,85.6c-41.7,13.5-72.8,11.7-96-1.6s-40.2-39.4-49.4-82.3
		c-9.1-42.9-8.9-100.7,1.9-167.9C1107.3,1824,1114.6,1791.4,1123.7,1757.5z M1875.2,1757.8c9.2,34,16.5,66.8,21.4,97.4
		c10.8,67.2,11.1,125.1,1.9,168.1c-9.2,43-26.3,69.3-49.7,82.8c-23.4,13.5-54.8,15.3-96.6,1.7c-41.8-13.6-91.8-42.7-144.7-85.7
		c-20.6-16.8-41.7-36.3-63-57c47.6-51.4,94.8-110.3,140.2-175.8C1752.5,1782.3,1816.3,1771.7,1875.2,1757.8z M1398.3,1795.7
		c33.3,1.8,67.1,3,101.7,3c33.4,0,66.1-1.2,98.4-2.9c-33,44.5-66.6,85-100.1,121.4C1464.8,1880.8,1431.3,1840.3,1398.3,1795.7z"/>
</g>
</svg>
