<?xml version="1.0" encoding="utf-8"?>
<!-- Generator: Adobe Illustrator 24.1.0, SVG Export Plug-In . SVG Version: 6.00 Build 0)  -->
<svg version="1.1" id="skillsPhotoshopStatic" xmlns="http://www.w3.org/2000/svg" xmlns:xlink="http://www.w3.org/1999/xlink" x="0px" y="0px"
	 viewBox="0 0 3000 3000" style="enable-background:new 0 0 3000 3000;" xml:space="preserve">
<style type="text/css">
	.st0{fill:none;stroke:#C7C8CA;stroke-width:381.8182;stroke-miterlimit:10;}
	.st1{fill:none;stroke:#008B7F;stroke-width:381.8182;stroke-miterlimit:10;}
	.st2{fill:#231F20;}
	.st3{fill-rule:evenodd;clip-rule:evenodd;fill:#231F20;}
</style>
<circle class="st0" cx="1500" cy="1500" r="1309.1"/>
<g>
	<path class="st2" d="M886.4,944.8v1110.4c0,32.1,26.3,58.4,58.4,58.4h1110.4c32.1,0,58.4-26.3,58.4-58.4V944.8
		c0-32.1-26.3-58.4-58.4-58.4H944.8C912.7,886.4,886.4,912.7,886.4,944.8z M1308.1,1176.8c58.1,0,107.5,14,140.6,45.9
		c29.8,29.8,45.5,75.7,45.5,130.9c0,57.9-14,97-38.2,128.9c-33.6,46.8-92.6,70.1-148.7,70.1c-12,0-21.3,0-41-0.9v269.7h-58.4v-632.3
		C1232.4,1181.5,1266.1,1176.8,1308.1,1176.8z M1306.6,1224.7c-16.9,0-31,1.8-40.3,4.7V1481c8.5,0.9,17,1.8,28.9,1.8
		c70.1,0,117.7-46.8,117.7-135.6C1412.9,1282.6,1386.9,1224.7,1306.6,1224.7z M1691.8,1352.1c37.1,0,64,11.4,83.6,23.4l-19.6,54.6
		c-18.4-12.3-37.7-20.7-62.8-20.7c-39.7,0-60.2,28-60.2,58.1c0,30.1,11.7,47.9,58.2,78c54.4,33.9,97,76,97,138.8
		c0,91.2-64,135.3-141.7,135.3c-33.9,0-71.6-10.2-92.1-26.3l18.4-54.3c16.7,10.2,45.6,23.3,75.7,23.3c41.8,0,68.9-25.4,68.9-65.7
		c0-34.8-12.6-59-60.2-89.1c-61.1-38.6-94.1-78-94.1-129.4C1563,1403.9,1619.1,1352.1,1691.8,1352.1z"/>
</g>
</svg>
