<?xml version="1.0" encoding="utf-8"?>
<!-- Generator: Adobe Illustrator 24.1.0, SVG Export Plug-In . SVG Version: 6.00 Build 0)  -->
<svg version="1.1" id="skillsIllustratorStatic" xmlns="http://www.w3.org/2000/svg" xmlns:xlink="http://www.w3.org/1999/xlink" x="0px" y="0px"
	 viewBox="0 0 3000 3000" style="enable-background:new 0 0 3000 3000;" xml:space="preserve">
<style type="text/css">
	.st0{fill:none;stroke:#C7C8CA;stroke-width:381.8182;stroke-miterlimit:10;}
	.st1{fill:none;stroke:#008B7F;stroke-width:381.8182;stroke-miterlimit:10;}
	.st2{fill:#231F20;}
	.st3{fill-rule:evenodd;clip-rule:evenodd;fill:#231F20;}
</style>
<circle class="st0" cx="1500" cy="1500" r="1309.1"/>
<g>
	<path class="st2" d="M886.4,944.8v1110.4c0,32.1,26.3,58.4,58.4,58.4h1110.4c32.1,0,58.4-26.3,58.4-58.4V944.8
		c0-32.1-26.3-58.4-58.4-58.4H944.8C912.7,886.4,886.4,912.7,886.4,944.8z M1352.4,1178.6h79.5l140.2,642.9h-78.7l-37.9-175.3
		h-130.9l-38.7,175.3h-77.6L1352.4,1178.6z M1748.9,1180c11.3,5.3,19.1,16.6,21.1,28.9c5.4,33.7-12.7,57.3-43.5,57.3h-0.9
		c-24,0-42.3-18.4-42.3-45.9C1683.2,1185,1715.8,1164.5,1748.9,1180z M1390.4,1237c-7.9,49.6-17.7,106.3-27.4,151l-33.5,170.4H1454
		l-34.4-171.4c-9.7-46.9-18.5-101.3-26.5-150H1390.4z M1675.3,1324.7h87.7v496.8h-87.7V1324.7z"/>
</g>
</svg>
