<?xml version="1.0" encoding="utf-8"?>
<!-- Generator: Adobe Illustrator 24.1.0, SVG Export Plug-In . SVG Version: 6.00 Build 0)  -->
<svg version="1.1" id="Layer_1" xmlns="http://www.w3.org/2000/svg" xmlns:xlink="http://www.w3.org/1999/xlink" x="0px" y="0px"
	 viewBox="0 0 3000 3000" style="enable-background:new 0 0 3000 3000;" xml:space="preserve">
<style type="text/css">
	.st0{fill:none;stroke:#C7C8CA;stroke-width:381.8182;stroke-miterlimit:10;}
	.st1{fill:none;stroke:#008B7F;stroke-width:381.8182;stroke-miterlimit:10;}
	.st2{fill:#231F20;}
	.st3{fill-rule:evenodd;clip-rule:evenodd;fill:#231F20;}
</style>
<circle class="st0" cx="1500" cy="1500" r="1309.1"/>
<g>
	<path class="st2" d="M886.4,886.4v1227.3h1227.3V886.4H886.4z M1554.8,1844.3c0,119.4-70,174-171.9,174
		c-92.1,0-145.4-47.7-172.7-105.5l93.7-56.7c18,32.1,34.4,59.2,74.1,59.2c37.7,0,61.8-14.8,61.8-72.6v-392h115.1V1844.3
		L1554.8,1844.3z M1827.1,2018c-107.1,0-176.4-51-210.1-117.8l94-54.2c24.7,40.3,57,70.1,113.7,70.1c47.7,0,78.3-23.8,78.3-57
		c0-39.4-31.2-53.4-84.1-76.7l-28.8-12.3c-83.3-35.3-138.3-80-138.3-174c0-86.6,66-152.3,168.8-152.3c73.4,0,126,25.5,163.8,92.3
		l-89.9,57.5c-19.7-35.3-41.1-49.3-74.2-49.3c-33.7,0-55.1,21.4-55.1,49.3c0,34.5,21.4,48.5,71,70.1l28.8,12.3
		C1963,1718,2018,1761,2018,1857.4C2018,1961,1936.4,2018,1827.1,2018L1827.1,2018z"/>
</g>
</svg>
