<svg id="Logo" xmlns="http://www.w3.org/2000/svg" viewBox="0 0 3000 3000"><defs><style>.cls-1{fill:#fff;}</style></defs><path class="cls-1" d="M2864,2587.5,1565,337.5a75,75,0,0,0-129.9,0L1052.57,1000a74.69,74.69,0,0,0-3.91,6.79L136,2587.5A75,75,0,0,0,201,2700H2799A75,75,0,0,0,2864,2587.5Zm-1363.91-1139L1293.71,882.31,1478.35,562.5a25,25,0,0,1,43.3,0l185,320.46Zm-70.54,244.46c.25.71.53,1.4.8,2.09l.24.62c.44,1.07.9,2.12,1.38,3.16,0,.1.09.18.13.28.46,1,.93,1.92,1.42,2.86.06.13.13.25.2.38.5,1,1,1.88,1.55,2.8a2.39,2.39,0,0,0,.13.21,75.06,75.06,0,0,0,6,8.79l.09.11c.68.84,1.37,1.66,2.08,2.46.12.15.25.29.38.44.65.73,1.32,1.45,2,2.15l.39.42c.77.79,1.56,1.56,2.36,2.31.26.25.54.48.8.72.52.48,1,1,1.58,1.4s.83.7,1.25,1l1.21,1c.47.37.94.74,1.43,1.11l1,.74c1,.69,1.92,1.36,2.91,2l1,.69,1.6,1,1.29.75,1.5.84c.7.37,1.41.74,2.12,1.09l1.25.61c.84.4,1.68.79,2.53,1.15l.94.4c.86.35,1.73.7,2.6,1l.44.18.23.07c1,.36,2,.69,2.93,1l0,0c1,.32,2.07.62,3.12.9l.53.14c.81.21,1.63.41,2.45.6l1,.22,2,.39,1.22.21,1.81.28,1.28.17,1.8.2,1.25.12c.65,0,1.31.09,2,.12l1.08.07c1,0,2,.06,2.93.06h.22c1,0,2,0,2.92-.06l1.07-.07,2-.12,1.22-.12,1.83-.2,1.25-.17,1.83-.28,1.2-.21,2-.38,1.05-.23c.79-.18,1.57-.37,2.35-.57l.64-.16c1-.28,2-.58,3.07-.9l.14,0c.94-.3,1.88-.62,2.81-1l.26-.09.52-.2c.82-.31,1.64-.63,2.45-1q.54-.21,1.08-.45c.74-.32,1.48-.66,2.22-1s1.22-.58,1.82-.88,1.17-.59,1.75-.9,1.1-.61,1.65-.93l1.11-.64,1.75-1.06c.24-.16.48-.32.73-.47,1.19-.78,2.36-1.58,3.5-2.41l.65-.47,1.58-1.22,1-.83c.46-.38.93-.76,1.38-1.15l1.35-1.2c.34-.3.68-.6,1-.91.78-.73,1.54-1.48,2.29-2.25.18-.17.34-.35.51-.53.64-.66,1.27-1.34,1.88-2l.46-.53c.67-.76,1.33-1.54,2-2.34l.18-.22a75.42,75.42,0,0,0,6-8.73l.14-.25c.53-.9,1-1.82,1.53-2.75.08-.14.15-.28.22-.42.49-.92,1-1.87,1.4-2.82l.15-.3c.48-1,.94-2.09,1.38-3.16l.24-.63q.42-1,.81-2.07l234-640.62,3.52,6.1v1446q-13.34,3.61-26.74,6.91a1185.08,1185.08,0,0,1-562.52,0A1171.46,1171.46,0,0,1,738,2264.68a1184.65,1184.65,0,0,1-152.2-156.24l454.43-787.09-.5,512.78c0,82-16.52,139.93-49.11,172.27C965.84,2031,929.28,2043,878.86,2043c-31.72,0-64.58-9-74.34-13.6a75,75,0,0,0-63.87,135.72c35.43,16.67,91,27.88,138.21,27.88,90.73,0,163.88-26.95,217.43-80.09,31-30.79,54.64-70,70.21-116.56,15.42-46.1,23.23-100.66,23.23-162.11l.75-773.1,5.36-9.28ZM1958,1318.28l456.2,790.16a1180.29,1180.29,0,0,1-376.36,306.76q-39.19,20.22-79.84,37.43ZM352.52,2537.5a24.55,24.55,0,0,1,0-25l153.59-266a1329.25,1329.25,0,0,0,387.28,302l2.91,1.49H374.17A24.55,24.55,0,0,1,352.52,2537.5Zm1754.09,11a1329.25,1329.25,0,0,0,387.28-302l153.59,266a25,25,0,0,1-21.65,37.5H2103.7Z"/></svg>