<?xml version="1.0" encoding="utf-8"?>
<!-- Generator: Adobe Illustrator 24.1.0, SVG Export Plug-In . SVG Version: 6.00 Build 0)  -->
<svg version="1.1" xmlns="http://www.w3.org/2000/svg" xmlns:xlink="http://www.w3.org/1999/xlink" x="0px" y="0px"
	 viewBox="0 0 3000 3000" style="enable-background:new 0 0 3000 3000;" xml:space="preserve">
<g id="Animation">
	<path d="M2863.99,2587.5l-1299.04-2250c-13.56-23.48-37.84-37.5-64.95-37.5s-51.4,14.02-64.95,37.5l-1299.04,2250
		c-13.56,23.48-13.56,51.52,0,75c13.56,23.48,37.84,37.5,64.95,37.5h2598.08c27.11,0,51.39-14.02,64.95-37.5
		C2877.55,2639.02,2877.55,2610.98,2863.99,2587.5z M2647.48,2537.5c-2.17,3.76-8.62,12.5-21.65,12.5H374.17
		c-13.03,0-19.48-8.74-21.65-12.5c-2.17-3.76-6.51-13.72,0-25l1125.83-1950c6.51-11.28,17.31-12.5,21.65-12.5s15.14,1.22,21.65,12.5
		l1125.83,1950C2654,2523.78,2649.65,2533.74,2647.48,2537.5z" style="fill:#FFFFFF;"/>
	<path d="M2505.88,2112.46c-227.67,308.03-593.45,507.77-1005.88,507.77s-778.21-199.74-1005.88-507.77" style="fill:none;stroke:#FFFFFF;stroke-width:150;stroke-miterlimit:10;"/>
	<line x1="1215.5" y1="886.75" x2="1500" y2="1667.25" style="fill:none;stroke:#FFFFFF;stroke-width:150;stroke-linecap:round;stroke-linejoin:round;stroke-miterlimit:10;" />
	<line x1="1785.5" y1="885.75" x2="1500" y2="1667.25"style="fill:none;stroke:#FFFFFF;stroke-width:150;stroke-linecap:round;stroke-linejoin:round;stroke-miterlimit:10;"/>
	<path d="M1115.5,1040.75l-0.77,793.38c0,222.91-111.46,283.83-235.87,283.83c-40.18,0-84.24-10.37-106.27-20.74
		 M772.59,2097.22" style="fill:none;stroke:#FFFFFF;stroke-width:150;stroke-linecap:round;stroke-linejoin:round;stroke-miterlimit:10;" />
	<line x1="1883" y1="1031.25" x2="1883" y2="2591.25" style="fill:none;stroke:#FFFFFF;stroke-width:150;stroke-miterlimit:10;"/>
</g>
</svg>
