<?xml version="1.0" standalone="no"?><svg xmlns="http://www.w3.org/2000/svg" viewBox="0 0 1440 320"><path fill="#ffffff" fill-opacity="1" d="M0,128L48,122.7C96,117,192,107,288,106.7C384,107,480,117,576,149.3C672,181,768,235,864,218.7C960,203,1056,117,1152,80C1248,43,1344,53,1392,58.7L1440,64L1440,320L1392,320C1344,320,1248,320,1152,320C1056,320,960,320,864,320C768,320,672,320,576,320C480,320,384,320,288,320C192,320,96,320,48,320L0,320Z" style="--darkreader-inline-fill:#007acc;" data-darkreader-inline-fill=""></path></svg>